<svg xmlns="http://www.w3.org/2000/svg" xmlns:xlink="http://www.w3.org/1999/xlink" width="1024" zoomAndPan="magnify" viewBox="0 0 768 767.999994" height="1024" preserveAspectRatio="xMidYMid meet" version="1.0"><defs><clipPath id="703095d097"><path d="M 60.585938 103 L 378 103 L 378 667 L 60.585938 667 Z M 60.585938 103 " clip-rule="nonzero"/></clipPath><clipPath id="b6c199e937"><path d="M 60.585938 103 L 378 103 L 378 667 L 60.585938 667 Z M 60.585938 103 " clip-rule="nonzero"/></clipPath></defs><g clip-path="url(#703095d097)"><path fill="#000000" d="M 366.484375 105.117188 C 359.640625 102.078125 351.582031 103.371094 345.957031 108.394531 L 176.429688 260.289062 L 112.570312 260.289062 C 83.761719 260.289062 60.34375 283.804688 60.34375 312.640625 L 60.34375 457.160156 C 60.34375 485.925781 83.753906 509.285156 112.570312 509.285156 L 176.429688 509.285156 L 345.957031 661.179688 C 349.53125 664.375 354.09375 666.050781 358.726562 666.050781 C 361.3125 666.050781 363.96875 665.515625 366.484375 664.449219 C 373.328125 661.328125 377.734375 654.554688 377.734375 647.023438 L 377.734375 122.625 C 377.734375 115.09375 373.320312 108.242188 366.484375 105.117188 Z M 366.484375 105.117188 " fill-opacity="1" fill-rule="nonzero"/></g><path fill="#000000" d="M 448.515625 258.226562 C 439.238281 253.273438 427.683594 256.777344 422.664062 266.0625 C 417.71875 275.351562 421.21875 286.917969 430.496094 291.941406 C 464.703125 310.28125 485.917969 345.898438 485.917969 384.855469 C 485.917969 423.816406 464.703125 459.277344 430.496094 477.625 C 421.21875 482.648438 417.726562 494.214844 422.664062 503.496094 C 426.164062 509.886719 432.703125 513.542969 439.539062 513.542969 C 442.578125 513.542969 445.625 512.855469 448.507812 511.332031 C 495.113281 486.296875 524.078125 437.816406 524.078125 384.855469 C 524.078125 331.894531 495.113281 283.261719 448.507812 258.226562 Z M 448.515625 258.226562 " fill-opacity="1" fill-rule="nonzero"/><path fill="#000000" d="M 582.769531 128.550781 C 574.558594 122.007812 562.550781 123.375 556.011719 131.675781 C 549.476562 139.894531 550.839844 151.914062 559.132812 158.460938 C 628.769531 213.628906 668.683594 296.125 668.683594 384.855469 C 668.683594 473.589844 628.769531 555.929688 559.132812 611.101562 C 550.847656 617.644531 549.476562 629.59375 556.011719 637.882812 C 559.738281 642.679688 565.363281 645.117188 570.988281 645.117188 C 575.09375 645.117188 579.269531 643.820312 582.769531 641.007812 C 661.601562 578.605469 706.84375 485.230469 706.84375 384.855469 C 706.84375 284.484375 661.609375 190.953125 582.769531 128.550781 Z M 582.769531 128.550781 " fill-opacity="1" fill-rule="nonzero"/><path fill="#000000" d="M 516.707031 193.316406 C 508.117188 187.226562 496.253906 189.207031 490.09375 197.804688 C 484.007812 206.40625 486.0625 218.351562 494.652344 224.445312 C 546.421875 261.203125 577.292969 321.242188 577.292969 384.863281 C 577.292969 448.488281 546.429688 508.371094 494.652344 545.132812 C 486.0625 551.222656 484.007812 563.171875 490.09375 571.769531 C 493.820312 577.019531 499.75 579.835938 505.675781 579.835938 C 509.472656 579.835938 513.351562 578.613281 516.699219 576.257812 C 578.503906 532.351562 615.449219 460.816406 615.449219 384.871094 C 615.449219 308.929688 578.503906 237.242188 516.699219 193.332031 Z M 516.707031 193.316406 " fill-opacity="1" fill-rule="nonzero"/><g clip-path="url(#b6c199e937)"><path fill="#000000" d="M 366.484375 105.117188 C 359.640625 102.078125 351.582031 103.371094 345.957031 108.394531 L 176.429688 260.289062 L 112.570312 260.289062 C 83.761719 260.289062 60.34375 283.804688 60.34375 312.640625 L 60.34375 457.160156 C 60.34375 485.925781 83.753906 509.285156 112.570312 509.285156 L 176.429688 509.285156 L 345.957031 661.179688 C 349.53125 664.375 354.09375 666.050781 358.726562 666.050781 C 361.3125 666.050781 363.96875 665.515625 366.484375 664.449219 C 373.328125 661.328125 377.734375 654.554688 377.734375 647.023438 L 377.734375 122.625 C 377.734375 115.09375 373.320312 108.242188 366.484375 105.117188 Z M 366.484375 105.117188 " fill-opacity="1" fill-rule="nonzero"/></g><path fill="#000000" d="M 448.515625 258.226562 C 439.238281 253.273438 427.683594 256.777344 422.664062 266.0625 C 417.71875 275.351562 421.21875 286.917969 430.496094 291.941406 C 464.703125 310.28125 485.917969 345.898438 485.917969 384.855469 C 485.917969 423.816406 464.703125 459.277344 430.496094 477.625 C 421.21875 482.648438 417.726562 494.214844 422.664062 503.496094 C 426.164062 509.886719 432.703125 513.542969 439.539062 513.542969 C 442.578125 513.542969 445.625 512.855469 448.507812 511.332031 C 495.113281 486.296875 524.078125 437.816406 524.078125 384.855469 C 524.078125 331.894531 495.113281 283.261719 448.507812 258.226562 Z M 448.515625 258.226562 " fill-opacity="1" fill-rule="nonzero"/><path fill="#000000" d="M 582.769531 128.550781 C 574.558594 122.007812 562.550781 123.375 556.011719 131.675781 C 549.476562 139.894531 550.839844 151.914062 559.132812 158.460938 C 628.769531 213.628906 668.683594 296.125 668.683594 384.855469 C 668.683594 473.589844 628.769531 555.929688 559.132812 611.101562 C 550.847656 617.644531 549.476562 629.59375 556.011719 637.882812 C 559.738281 642.679688 565.363281 645.117188 570.988281 645.117188 C 575.09375 645.117188 579.269531 643.820312 582.769531 641.007812 C 661.601562 578.605469 706.84375 485.230469 706.84375 384.855469 C 706.84375 284.484375 661.609375 190.953125 582.769531 128.550781 Z M 582.769531 128.550781 " fill-opacity="1" fill-rule="nonzero"/><path fill="#000000" d="M 516.707031 193.316406 C 508.117188 187.226562 496.253906 189.207031 490.09375 197.804688 C 484.007812 206.40625 486.0625 218.351562 494.652344 224.445312 C 546.421875 261.203125 577.292969 321.242188 577.292969 384.863281 C 577.292969 448.488281 546.429688 508.371094 494.652344 545.132812 C 486.0625 551.222656 484.007812 563.171875 490.09375 571.769531 C 493.820312 577.019531 499.75 579.835938 505.675781 579.835938 C 509.472656 579.835938 513.351562 578.613281 516.699219 576.257812 C 578.503906 532.351562 615.449219 460.816406 615.449219 384.871094 C 615.449219 308.929688 578.503906 237.242188 516.699219 193.332031 Z M 516.707031 193.316406 " fill-opacity="1" fill-rule="nonzero"/></svg>