<svg xmlns="http://www.w3.org/2000/svg" xmlns:xlink="http://www.w3.org/1999/xlink" width="1024" zoomAndPan="magnify" viewBox="0 0 768 767.999994" height="1024" preserveAspectRatio="xMidYMid meet" version="1.0"><defs><clipPath id="622c5ef021"><path d="M 3 71 L 608 71 L 608 753.675781 L 3 753.675781 Z M 3 71 " clip-rule="nonzero"/></clipPath><clipPath id="80d64f13e6"><path d="M 3 71 L 608 71 L 608 753.675781 L 3 753.675781 Z M 3 71 " clip-rule="nonzero"/></clipPath></defs><g clip-path="url(#622c5ef021)"><path fill="#000000" d="M 547.503906 340.59375 L 547.503906 329.25 C 551.058594 323.097656 559.808594 303.824219 554.339844 270.472656 C 549.828125 241.902344 542.445312 225.636719 538.753906 218.667969 C 544.085938 208.6875 553.929688 181.488281 526.996094 144.304688 C 425.65625 37.441406 28.800781 14.101562 4.0625 309.023438 C -3.183594 403.472656 37.417969 500.523438 110.289062 562.582031 C 110.5625 562.855469 146.246094 594.429688 105.367188 745.203125 C 104.136719 749.347656 107.507812 754.007812 111.929688 753.8125 C 111.929688 753.8125 381.394531 753.8125 381.394531 753.8125 C 383.582031 753.8125 385.632812 752.855469 387 751.078125 C 388.230469 749.164062 388.503906 746.976562 387.820312 744.789062 C 378.933594 718.820312 368.542969 671.933594 378.25 656.898438 C 380.136719 653.980469 382.820312 652.808594 386.179688 652.523438 C 428.699219 660.316406 473.8125 661.820312 476.136719 661.820312 C 477.230469 661.957031 503.34375 666.605469 519.886719 652.660156 C 528.636719 645.414062 533.011719 634.753906 533.011719 621.085938 C 533.011719 581.035156 552.699219 553.421875 552.972656 553.148438 C 555.269531 550.0625 554.222656 545.179688 550.921875 543.308594 C 550.921875 543.308594 513.871094 521.4375 513.871094 521.4375 L 553.246094 505.855469 C 556.664062 504.488281 558.441406 500.660156 557.074219 497.105469 C 556.664062 495.875 546.546875 467.582031 567.738281 459.105469 C 577.445312 455.140625 585.921875 451.863281 592.757812 449.402344 C 606.605469 444.710938 611.9375 426.140625 602.871094 414.683594 C 602.875 414.683594 547.503906 340.59375 547.503906 340.59375 Z M 547.503906 340.59375 " fill-opacity="1" fill-rule="nonzero"/></g><path fill="#000000" d="M 627.0625 488.347656 C 620.796875 492.5625 619.132812 501.058594 623.351562 507.316406 C 636.6875 526.644531 636.683594 554.425781 623.351562 573.75 C 613.449219 588.558594 635.933594 603.832031 646.035156 589.003906 C 665.554688 560.714844 665.558594 520.351562 646.035156 492.0625 C 641.828125 485.800781 633.324219 484.125 627.0625 488.347656 Z M 627.0625 488.347656 " fill-opacity="1" fill-rule="nonzero"/><path fill="#000000" d="M 687.652344 464.347656 C 677.644531 449.589844 655.03125 464.699219 664.96875 479.605469 C 689.507812 515.21875 689.503906 565.847656 664.96875 601.460938 C 658.722656 610.140625 665.738281 623.058594 676.296875 622.757812 C 680.695312 622.757812 685.015625 620.640625 687.652344 616.71875 C 718.378906 572.128906 718.378906 508.941406 687.652344 464.347656 Z M 687.652344 464.347656 " fill-opacity="1" fill-rule="nonzero"/><path fill="#000000" d="M 730.46875 435.800781 C 720.503906 421.011719 697.859375 436.003906 707.71875 450.96875 C 743.507812 503.378906 743.503906 577.6875 707.71875 630.101562 C 701.535156 638.78125 708.542969 651.660156 719.078125 651.351562 C 723.5 651.351562 727.835938 649.214844 730.46875 645.265625 C 772.351562 583.902344 772.355469 497.164062 730.46875 435.800781 Z M 730.46875 435.800781 " fill-opacity="1" fill-rule="nonzero"/><g clip-path="url(#80d64f13e6)"><path fill="#000000" d="M 547.503906 340.59375 L 547.503906 329.25 C 551.058594 323.097656 559.808594 303.824219 554.339844 270.472656 C 549.828125 241.902344 542.445312 225.636719 538.753906 218.667969 C 544.085938 208.6875 553.929688 181.488281 526.996094 144.304688 C 425.65625 37.441406 28.800781 14.101562 4.0625 309.023438 C -3.183594 403.472656 37.417969 500.523438 110.289062 562.582031 C 110.5625 562.855469 146.246094 594.429688 105.367188 745.203125 C 104.136719 749.347656 107.507812 754.007812 111.929688 753.8125 C 111.929688 753.8125 381.394531 753.8125 381.394531 753.8125 C 383.582031 753.8125 385.632812 752.855469 387 751.078125 C 388.230469 749.164062 388.503906 746.976562 387.820312 744.789062 C 378.933594 718.820312 368.542969 671.933594 378.25 656.898438 C 380.136719 653.980469 382.820312 652.808594 386.179688 652.523438 C 428.699219 660.316406 473.8125 661.820312 476.136719 661.820312 C 477.230469 661.957031 503.34375 666.605469 519.886719 652.660156 C 528.636719 645.414062 533.011719 634.753906 533.011719 621.085938 C 533.011719 581.035156 552.699219 553.421875 552.972656 553.148438 C 555.269531 550.0625 554.222656 545.179688 550.921875 543.308594 C 550.921875 543.308594 513.871094 521.4375 513.871094 521.4375 L 553.246094 505.855469 C 556.664062 504.488281 558.441406 500.660156 557.074219 497.105469 C 556.664062 495.875 546.546875 467.582031 567.738281 459.105469 C 577.445312 455.140625 585.921875 451.863281 592.757812 449.402344 C 606.605469 444.710938 611.9375 426.140625 602.871094 414.683594 C 602.875 414.683594 547.503906 340.59375 547.503906 340.59375 Z M 547.503906 340.59375 " fill-opacity="1" fill-rule="nonzero"/></g><path fill="#000000" d="M 627.0625 488.347656 C 620.796875 492.5625 619.132812 501.058594 623.351562 507.316406 C 636.6875 526.644531 636.683594 554.425781 623.351562 573.75 C 613.449219 588.558594 635.933594 603.832031 646.035156 589.003906 C 665.554688 560.714844 665.558594 520.351562 646.035156 492.0625 C 641.828125 485.800781 633.324219 484.125 627.0625 488.347656 Z M 627.0625 488.347656 " fill-opacity="1" fill-rule="nonzero"/><path fill="#000000" d="M 687.652344 464.347656 C 677.644531 449.589844 655.03125 464.699219 664.96875 479.605469 C 689.507812 515.21875 689.503906 565.847656 664.96875 601.460938 C 658.722656 610.140625 665.738281 623.058594 676.296875 622.757812 C 680.695312 622.757812 685.015625 620.640625 687.652344 616.71875 C 718.378906 572.128906 718.378906 508.941406 687.652344 464.347656 Z M 687.652344 464.347656 " fill-opacity="1" fill-rule="nonzero"/><path fill="#000000" d="M 730.46875 435.800781 C 720.503906 421.011719 697.859375 436.003906 707.71875 450.96875 C 743.507812 503.378906 743.503906 577.6875 707.71875 630.101562 C 701.535156 638.78125 708.542969 651.660156 719.078125 651.351562 C 723.5 651.351562 727.835938 649.214844 730.46875 645.265625 C 772.351562 583.902344 772.355469 497.164062 730.46875 435.800781 Z M 730.46875 435.800781 " fill-opacity="1" fill-rule="nonzero"/></svg>