<svg xmlns="http://www.w3.org/2000/svg" xmlns:xlink="http://www.w3.org/1999/xlink" width="1024" zoomAndPan="magnify" viewBox="0 0 768 767.999994" height="1024" preserveAspectRatio="xMidYMid meet" version="1.0"><defs><clipPath id="8b83e8bf63"><path d="M 9.761719 57.476562 L 758.261719 57.476562 L 758.261719 191 L 9.761719 191 Z M 9.761719 57.476562 " clip-rule="nonzero"/></clipPath><clipPath id="f31ac95a47"><path d="M 9.761719 317 L 758.261719 317 L 758.261719 451 L 9.761719 451 Z M 9.761719 317 " clip-rule="nonzero"/></clipPath><clipPath id="845825220f"><path d="M 9.761719 577 L 758.261719 577 L 758.261719 710.726562 L 9.761719 710.726562 Z M 9.761719 577 " clip-rule="nonzero"/></clipPath></defs><g clip-path="url(#8b83e8bf63)"><path fill="#ffffff" d="M 76.1875 190.445312 L 691.808594 190.445312 C 728.492188 190.445312 758.238281 160.699219 758.238281 124.015625 C 758.238281 87.332031 728.496094 57.589844 691.808594 57.589844 L 76.1875 57.589844 C 39.503906 57.589844 9.761719 87.324219 9.761719 124.015625 C 9.761719 160.707031 39.503906 190.445312 76.1875 190.445312 Z M 76.1875 190.445312 " fill-opacity="1" fill-rule="nonzero"/></g><g clip-path="url(#f31ac95a47)"><path fill="#ffffff" d="M 691.808594 317.566406 L 76.1875 317.566406 C 39.503906 317.566406 9.761719 347.304688 9.761719 383.996094 C 9.761719 420.6875 39.503906 450.421875 76.1875 450.421875 L 691.808594 450.421875 C 728.492188 450.421875 758.238281 420.679688 758.238281 383.996094 C 758.238281 347.3125 728.496094 317.566406 691.808594 317.566406 Z M 691.808594 317.566406 " fill-opacity="1" fill-rule="nonzero"/></g><g clip-path="url(#845825220f)"><path fill="#ffffff" d="M 691.808594 577.546875 L 76.1875 577.546875 C 39.503906 577.546875 9.761719 607.285156 9.761719 643.976562 C 9.761719 680.664062 39.503906 710.402344 76.1875 710.402344 L 691.808594 710.402344 C 728.492188 710.402344 758.238281 680.660156 758.238281 643.976562 C 758.238281 607.289062 728.496094 577.546875 691.808594 577.546875 Z M 691.808594 577.546875 " fill-opacity="1" fill-rule="nonzero"/></g></svg>