<svg xmlns="http://www.w3.org/2000/svg" xmlns:xlink="http://www.w3.org/1999/xlink" width="1024" zoomAndPan="magnify" viewBox="0 0 768 767.999994" height="1024" preserveAspectRatio="xMidYMid meet" version="1.0"><defs><clipPath id="56f1209ea1"><path d="M 119 209.121094 L 649 209.121094 L 649 678.988281 L 119 678.988281 Z M 119 209.121094 " clip-rule="nonzero"/></clipPath><clipPath id="b99fbb9b34"><path d="M 13 89.027344 L 754.714844 89.027344 L 754.714844 437 L 13 437 Z M 13 89.027344 " clip-rule="nonzero"/></clipPath><clipPath id="9016b083dc"><path d="M 119 209.121094 L 649 209.121094 L 649 678.988281 L 119 678.988281 Z M 119 209.121094 " clip-rule="nonzero"/></clipPath><clipPath id="12efa5cb45"><path d="M 13 89.027344 L 754.714844 89.027344 L 754.714844 437 L 13 437 Z M 13 89.027344 " clip-rule="nonzero"/></clipPath></defs><g clip-path="url(#56f1209ea1)"><path fill="#ffffff" d="M 381.109375 210.507812 L 120.890625 425.027344 C 120.140625 425.644531 119.617188 426.496094 119.378906 427.449219 C 119.378906 427.453125 119.378906 427.457031 119.378906 427.457031 C 119.222656 428.074219 119.144531 428.519531 119.144531 428.832031 L 119.144531 649.542969 C 119.144531 657.511719 122.0625 664.414062 127.882812 670.238281 C 133.707031 676.050781 140.605469 678.980469 148.574219 678.980469 L 320.59375 678.980469 C 323.101562 678.980469 325.136719 676.941406 325.136719 674.433594 L 325.136719 506.960938 C 325.136719 504.445312 327.175781 502.40625 329.683594 502.40625 L 438.316406 502.40625 C 440.824219 502.40625 442.863281 504.445312 442.863281 506.960938 L 442.863281 674.441406 C 442.863281 676.949219 444.898438 678.988281 447.410156 678.988281 L 619.421875 678.988281 C 627.390625 678.988281 634.300781 676.0625 640.113281 670.238281 C 645.941406 664.425781 648.863281 657.511719 648.863281 649.542969 L 648.863281 428.832031 C 648.863281 428.667969 648.859375 428.511719 648.855469 428.355469 C 648.808594 427.089844 648.1875 425.914062 647.203125 425.101562 L 386.894531 210.507812 C 385.214844 209.121094 382.789062 209.121094 381.109375 210.507812 " fill-opacity="1" fill-rule="nonzero"/></g><g clip-path="url(#b99fbb9b34)"><path fill="#ffffff" d="M 749.546875 376.421875 L 648.855469 292.734375 L 648.855469 105.128906 C 648.855469 100.84375 647.476562 97.316406 644.707031 94.550781 C 641.960938 91.796875 638.433594 90.417969 634.136719 90.417969 L 545.855469 90.417969 C 541.558594 90.417969 538.039062 91.796875 535.273438 94.550781 C 532.519531 97.316406 531.140625 100.84375 531.140625 105.128906 L 531.140625 194.792969 L 418.945312 100.988281 C 409.152344 93.019531 397.5 89.03125 384.011719 89.03125 C 370.519531 89.03125 358.875 93.019531 349.0625 100.988281 L 18.445312 376.421875 C 15.382812 378.875 13.703125 382.167969 13.386719 386.304688 C 13.074219 390.445312 14.148438 394.054688 16.601562 397.117188 L 45.113281 431.140625 C 47.570312 433.898438 50.785156 435.585938 54.769531 436.203125 C 58.445312 436.511719 62.128906 435.441406 65.808594 432.984375 L 384 167.664062 L 702.195312 432.984375 C 704.648438 435.121094 707.863281 436.191406 711.847656 436.191406 L 713.234375 436.191406 C 717.210938 435.585938 720.421875 433.886719 722.886719 431.136719 L 751.398438 397.117188 C 753.847656 394.046875 754.925781 390.4375 754.609375 386.296875 C 754.289062 382.167969 752.605469 378.875 749.546875 376.421875 " fill-opacity="1" fill-rule="nonzero"/></g><g clip-path="url(#9016b083dc)"><path fill="#ffffff" d="M 381.109375 210.507812 L 120.890625 425.027344 C 120.140625 425.644531 119.617188 426.496094 119.378906 427.449219 C 119.378906 427.453125 119.378906 427.457031 119.378906 427.457031 C 119.222656 428.074219 119.144531 428.519531 119.144531 428.832031 L 119.144531 649.542969 C 119.144531 657.511719 122.0625 664.414062 127.882812 670.238281 C 133.707031 676.050781 140.605469 678.980469 148.574219 678.980469 L 320.59375 678.980469 C 323.101562 678.980469 325.136719 676.941406 325.136719 674.433594 L 325.136719 506.960938 C 325.136719 504.445312 327.175781 502.40625 329.683594 502.40625 L 438.316406 502.40625 C 440.824219 502.40625 442.863281 504.445312 442.863281 506.960938 L 442.863281 674.441406 C 442.863281 676.949219 444.898438 678.988281 447.410156 678.988281 L 619.421875 678.988281 C 627.390625 678.988281 634.300781 676.0625 640.113281 670.238281 C 645.941406 664.425781 648.863281 657.511719 648.863281 649.542969 L 648.863281 428.832031 C 648.863281 428.667969 648.859375 428.511719 648.855469 428.355469 C 648.808594 427.089844 648.1875 425.914062 647.203125 425.101562 L 386.894531 210.507812 C 385.214844 209.121094 382.789062 209.121094 381.109375 210.507812 " fill-opacity="1" fill-rule="nonzero"/></g><g clip-path="url(#12efa5cb45)"><path fill="#ffffff" d="M 749.546875 376.421875 L 648.855469 292.734375 L 648.855469 105.128906 C 648.855469 100.84375 647.476562 97.316406 644.707031 94.550781 C 641.960938 91.796875 638.433594 90.417969 634.136719 90.417969 L 545.855469 90.417969 C 541.558594 90.417969 538.039062 91.796875 535.273438 94.550781 C 532.519531 97.316406 531.140625 100.84375 531.140625 105.128906 L 531.140625 194.792969 L 418.945312 100.988281 C 409.152344 93.019531 397.5 89.03125 384.011719 89.03125 C 370.519531 89.03125 358.875 93.019531 349.0625 100.988281 L 18.445312 376.421875 C 15.382812 378.875 13.703125 382.167969 13.386719 386.304688 C 13.074219 390.445312 14.148438 394.054688 16.601562 397.117188 L 45.113281 431.140625 C 47.570312 433.898438 50.785156 435.585938 54.769531 436.203125 C 58.445312 436.511719 62.128906 435.441406 65.808594 432.984375 L 384 167.664062 L 702.195312 432.984375 C 704.648438 435.121094 707.863281 436.191406 711.847656 436.191406 L 713.234375 436.191406 C 717.210938 435.585938 720.421875 433.886719 722.886719 431.136719 L 751.398438 397.117188 C 753.847656 394.046875 754.925781 390.4375 754.609375 386.296875 C 754.289062 382.167969 752.605469 378.875 749.546875 376.421875 " fill-opacity="1" fill-rule="nonzero"/></g></svg>