<?xml version="1.0" encoding="UTF-8"?>
<svg version="1.1" xmlns="http://www.w3.org/2000/svg" width="310" height="282">
<path d="M0 0 C2.02931957 1.36412693 3.70387773 2.93961659 5.48046875 4.62109375 C8.64492446 7.60892868 11.94588928 10.41867598 15.25 13.25 C20.56043166 17.83454057 25.7819261 22.50094457 30.93701172 27.2590332 C35.90866583 31.8476696 40.98776753 36.29311726 46.14453125 40.671875 C52.66848253 46.22066724 59.06221199 51.86151163 65.31738281 57.71191406 C68.59294973 60.75621758 71.94531514 63.63966768 75.4375 66.4375 C82.27765567 71.92974264 88.67907835 77.9216976 95 84 C95.68192413 84.49175217 96.36384827 84.98350433 97.06643677 85.49015808 C100.02376754 89.32889096 99.55110659 92.94224578 99.50170898 97.66210938 C99.50981346 99.13101372 99.50981346 99.13101372 99.51808167 100.6295929 C99.53059324 103.8679523 99.51406129 107.10542691 99.49609375 110.34375 C99.49624868 112.59289598 99.49773668 114.84204224 99.50050354 117.09118652 C99.50188863 121.80553994 99.48931079 126.51958952 99.46655273 131.23388672 C99.43816809 137.28022331 99.44090411 143.32605494 99.45364285 149.37242889 C99.46059409 154.0169507 99.45281702 158.66135555 99.44038582 163.30586243 C99.43586595 165.53542126 99.43553918 167.76499263 99.43945122 169.99455261 C99.44235794 173.10926089 99.42588168 176.22327056 99.40405273 179.33789062 C99.41080521 180.72352959 99.41080521 180.72352959 99.41769409 182.13716125 C99.37682666 185.64247365 99.28704058 188.3319478 97.89466858 191.57252502 C95.04722588 193.71783595 92.81822914 193.50123031 89.28125 193.50170898 C88.60288086 193.50711197 87.92451172 193.51251495 87.22558594 193.51808167 C84.98328007 193.53058888 82.74225331 193.51406665 80.5 193.49609375 C78.94205661 193.49624869 77.38411282 193.49773691 75.82617188 193.50050354 C72.56102458 193.50188841 69.29631609 193.48931534 66.03125 193.46655273 C61.84446079 193.43816738 57.65840079 193.44090401 53.47155762 193.45364285 C50.25449386 193.46059556 47.03759886 193.4528155 43.82055664 193.44038582 C42.27678067 193.43586732 40.73298661 193.435538 39.18920898 193.43945122 C37.03201115 193.44235957 34.87582059 193.42587642 32.71875 193.40405273 C31.49091797 193.39864975 30.26308594 193.39324677 28.99804688 193.38768005 C26 193 26 193 24.10412598 191.88694763 C22.44320316 189.04843605 22.62081892 186.67768703 22.61523438 183.40478516 C22.6098616 182.73938217 22.60448883 182.07397919 22.59895325 181.38841248 C22.58917588 179.944677 22.586231 178.50088276 22.58930969 177.05711746 C22.59378716 174.77008286 22.57978986 172.48382235 22.56091309 170.1968689 C22.52411616 165.33959195 22.51042282 160.4823958 22.5 155.625 C22.48791643 150.00252796 22.46632935 144.38043227 22.41999817 138.75812912 C22.40644241 136.5084932 22.41059655 134.25933472 22.41540527 132.00967407 C22.40606152 130.62444455 22.3958919 129.23922026 22.38476562 127.85400391 C22.38271118 126.64837799 22.38065674 125.44275208 22.37854004 124.20059204 C21.96414723 120.69686139 21.07406817 118.82188255 19 116 C15.49088017 113.32602445 11.39588897 113.69390703 7.1640625 113.69921875 C6.40709076 113.69493362 5.65011902 113.6906485 4.87020874 113.68623352 C3.27155556 113.68050104 1.6728763 113.67998199 0.07421875 113.68432617 C-2.35983291 113.68748035 -4.79266149 113.66403527 -7.2265625 113.63867188 C-8.78385264 113.63639803 -10.34114603 113.63569578 -11.8984375 113.63671875 C-12.62050385 113.627509 -13.34257019 113.61829926 -14.08651733 113.60881042 C-18.80023425 113.65152553 -22.13890102 114.2425242 -26 117 C-29.64900761 122.85499422 -29.37983803 128.53257903 -29.2578125 135.27734375 C-29.25119598 136.36149063 -29.24457947 137.44563751 -29.23776245 138.56263733 C-29.2144506 142.02121919 -29.17085071 145.47914982 -29.125 148.9375 C-28.85314132 175.25379265 -28.85314132 175.25379265 -29.3046875 184.50390625 C-29.36382324 185.73052979 -29.42295898 186.95715332 -29.48388672 188.22094727 C-29.6542041 189.13803467 -29.82452148 190.05512207 -30 191 C-33.62328363 193.41552242 -35.31371758 193.25823534 -39.62695312 193.2746582 C-40.2955687 193.27976913 -40.96418427 193.28488007 -41.65306091 193.29014587 C-43.86254838 193.30404292 -46.07172403 193.30308529 -48.28125 193.30078125 C-49.81677364 193.30466772 -51.35229621 193.30900229 -52.88781738 193.31376648 C-56.10574835 193.32122861 -59.3235696 193.3209372 -62.54150391 193.31567383 C-66.667708 193.30987474 -70.79346386 193.32682044 -74.91959381 193.3500185 C-78.09029776 193.36473989 -81.2608933 193.36562982 -84.43162537 193.36250877 C-85.95308827 193.36302265 -87.47455713 193.36827279 -88.99598694 193.37832069 C-91.12197139 193.39063941 -93.2470768 193.38392233 -95.37304688 193.37231445 C-97.18814758 193.37325859 -97.18814758 193.37325859 -99.03991699 193.3742218 C-102 193 -102 193 -103.66035461 191.73907566 C-105.31516842 189.59086059 -105.38090517 188.49115995 -105.39440918 185.80056763 C-105.40575897 184.94542572 -105.41710876 184.09028381 -105.42880249 183.20922852 C-105.42587189 182.27409424 -105.42294128 181.33895996 -105.41992188 180.37548828 C-105.42839142 179.38821747 -105.43686096 178.40094666 -105.44558716 177.38375854 C-105.46903093 174.11247965 -105.46997746 170.84166914 -105.46875 167.5703125 C-105.47584767 165.2997112 -105.48354608 163.02911171 -105.49182129 160.7585144 C-105.50528349 155.99537168 -105.50682727 151.23239473 -105.50097656 146.46923828 C-105.49508231 140.36339771 -105.52565341 134.25835277 -105.56609344 128.15266609 C-105.5919372 123.46177886 -105.59485078 118.77108396 -105.59120178 114.08013535 C-105.59289648 111.82904945 -105.60257245 109.577955 -105.62034607 107.32693863 C-105.64246675 104.17851743 -105.63286763 101.03171617 -105.61523438 97.88330078 C-105.62849762 96.95221497 -105.64176086 96.02112915 -105.65542603 95.06182861 C-105.59615265 90.50992114 -105.51143366 88.63395762 -102.56643677 84.98342896 C-101.29605057 84.00163162 -101.29605057 84.00163162 -100 83 C-99.16927979 82.19900879 -99.16927979 82.19900879 -98.32177734 81.38183594 C-92.53572897 75.93994621 -86.77164712 70.52423226 -80.5625 65.5625 C-74.56245629 60.76068987 -69.03347074 55.49725409 -63.4453125 50.23046875 C-60.32224078 47.28967421 -57.13727908 44.43600823 -53.88671875 41.63671875 C-51.56341213 39.62126228 -49.28251535 37.56151538 -47 35.5 C-41.66437363 30.68985199 -36.28413119 25.94019763 -30.8125 21.28515625 C-29.62478955 20.27368457 -28.43729593 19.26195822 -27.25 18.25 C-26.65316406 17.74130371 -26.05632812 17.23260742 -25.44140625 16.70849609 C-20.28489306 12.29080589 -15.28878702 7.71773011 -10.328125 3.08203125 C-6.80351551 -0.07001046 -4.72518082 -0.70002679 0 0 Z " fill="#FDFCFB" transform="translate(147,71)"/>
<path d="M0 0 C2.62785494 1.87049773 4.99938632 3.94657925 7.375 6.125 C8.01638916 6.69686035 8.65777832 7.2687207 9.31860352 7.85791016 C11.22291741 9.5607081 13.11294418 11.27811874 15 13 C16.04261772 13.94309655 17.08555976 14.88583475 18.12890625 15.828125 C19.95672677 17.4856201 21.78113481 19.14688874 23.6015625 20.8125 C28.06275404 24.88133919 32.62406592 28.82920516 37.21875 32.74609375 C43.76251142 38.32756386 50.22308967 43.96800738 56.56640625 49.77734375 C61.037065 53.86049757 65.61141889 57.81842379 70.21875 61.74609375 C76.7611069 67.32636589 83.22016452 72.96577565 89.5625 78.7734375 C94.03942627 82.86293746 98.59227609 86.84977236 103.27734375 90.69921875 C103.8595166 91.18140869 104.44168945 91.66359863 105.04150391 92.16040039 C106.19606512 93.11521329 107.35569032 94.06394559 108.52099609 95.00561523 C112.3137669 98.14990779 115.43745333 101.08799369 116.3984375 106.0625 C116.32748389 111.92799821 114.97123114 115.02876886 110.75 119.25 C107.27063437 121.46414177 105.13459825 122 101 122 C92.97943185 119.3725725 87.43542184 113.11204498 81.46435547 107.39208984 C77.399976 103.52828662 73.09384165 99.92985439 68.82421875 96.296875 C61.98180944 90.46766312 55.25882339 84.54467469 48.65625 78.4453125 C44.13701153 74.28495473 39.49821391 70.27314465 34.8203125 66.29296875 C27.98373018 60.46970634 21.26569674 54.55370857 14.671875 48.45703125 C11.82407551 45.83822148 8.92944967 43.28446284 6 40.7578125 C4.47948576 39.42142303 2.983744 38.0567874 1.5 36.6796875 C0.63375 35.87789062 -0.2325 35.07609375 -1.125 34.25 C-1.91132813 33.51265625 -2.69765625 32.7753125 -3.5078125 32.015625 C-7.70320226 28.62248846 -10.98608981 26.67905866 -16.453125 26.98046875 C-21.40261621 27.75395618 -24.19705118 29.92016032 -27.75 33.3125 C-28.34143799 33.84721924 -28.93287598 34.38193848 -29.54223633 34.93286133 C-31.38024805 36.60278159 -33.19152193 38.29819215 -35 40 C-36.13311969 41.05055327 -37.26720865 42.10006222 -38.40234375 43.1484375 C-40.04323676 44.66502777 -41.68262867 46.18294938 -43.31542969 47.70825195 C-47.45014731 51.55510151 -51.7718615 55.11244354 -56.17578125 58.6484375 C-60.61032258 62.34082184 -64.79587424 66.2929072 -69.015625 70.2265625 C-73.62148226 74.51981799 -78.3810007 78.62329422 -83.17578125 82.703125 C-90.01537475 88.52993802 -96.73549876 94.45066722 -103.3359375 100.546875 C-106.83369796 103.76768669 -110.38733616 106.909092 -114 110 C-115.47533203 111.27617187 -115.47533203 111.27617187 -116.98046875 112.578125 C-118.04891676 113.49024254 -119.11792699 114.40170192 -120.1875 115.3125 C-121.17105469 116.15425781 -122.15460938 116.99601562 -123.16796875 117.86328125 C-127.08355621 120.81752448 -129.58119302 122.07600752 -134.5 121.8125 C-139.06922228 120.75178768 -141.7597226 119.45411833 -144.8125 115.875 C-146.48547092 111.82464935 -146.66762138 108.32035445 -146 104 C-143.71666015 99.24304197 -140.23196729 96.24927471 -136.26171875 92.91015625 C-133.84795862 90.871592 -131.51933102 88.75664203 -129.1875 86.625 C-125.76770672 83.53363199 -122.28041476 80.57540968 -118.6875 77.6875 C-113.87786607 73.80044748 -109.35789937 69.67904282 -104.84985352 65.453125 C-100.53175426 61.4289884 -96.01766549 57.70654133 -91.4140625 54.01171875 C-89.31083811 52.25903175 -87.39941067 50.46692526 -85.5 48.5 C-82.79103326 45.69474298 -79.91664461 43.25370468 -76.875 40.8125 C-70.79072618 35.9166263 -65.1243537 30.63243383 -59.41601562 25.31152344 C-56.34263511 22.46493721 -53.17703794 19.72956781 -50 17 C-48.9061591 16.05218823 -47.81241854 15.10426065 -46.71875 14.15625 C-18.42595012 -10.31340541 -18.42595012 -10.31340541 0 0 Z " fill="#FAF8F5" transform="translate(159,26)"/>
<path d="M0 0 C0.66 0.33 1.32 0.66 2 1 C1.29199249 1.52274002 0.58398499 2.04548004 -0.14547729 2.58406067 C-5.97640923 7.73212786 -8.55909672 11.83961891 -9.13450813 19.69970226 C-9.30080642 24.93318332 -9.2694048 30.15185404 -9.1953125 35.38671875 C-9.19910411 37.65787372 -9.20730078 39.92902522 -9.21969604 42.20014954 C-9.24042087 48.14700927 -9.20170505 54.09202092 -9.15020752 60.03863525 C-9.10820328 66.11887631 -9.12296374 72.19895783 -9.1328125 78.27929688 C-9.14380148 90.18671796 -9.09193665 102.09295958 -9 114 C-3.06 114 2.88 114 9 114 C9 114.66 9 115.32 9 116 C6.22858283 116.08089542 3.45952181 116.14044062 0.6875 116.1875 C-0.09818359 116.21263672 -0.88386719 116.23777344 -1.69335938 116.26367188 C-2.45068359 116.27333984 -3.20800781 116.28300781 -3.98828125 116.29296875 C-4.68477783 116.3086792 -5.38127441 116.32438965 -6.09887695 116.34057617 C-8.63344129 115.88652233 -9.39551625 114.98721884 -11 113 C-11.38311005 111.05185127 -11.38311005 111.05185127 -11.39440918 108.80056763 C-11.40575897 107.94542572 -11.41710876 107.09028381 -11.42880249 106.20922852 C-11.42587189 105.27409424 -11.42294128 104.33895996 -11.41992188 103.37548828 C-11.42839142 102.38821747 -11.43686096 101.40094666 -11.44558716 100.38375854 C-11.46903093 97.11247965 -11.46997746 93.84166914 -11.46875 90.5703125 C-11.47584767 88.2997112 -11.48354608 86.02911171 -11.49182129 83.7585144 C-11.50528349 78.99537168 -11.50682727 74.23239473 -11.50097656 69.46923828 C-11.49508231 63.36339771 -11.52565341 57.25835277 -11.56609344 51.15266609 C-11.5919372 46.46177886 -11.59485078 41.77108396 -11.59120178 37.08013535 C-11.59289648 34.82904945 -11.60257245 32.577955 -11.62034607 30.32693863 C-11.64246675 27.17851743 -11.63286763 24.03171617 -11.61523438 20.88330078 C-11.62849762 19.95221497 -11.64176086 19.02112915 -11.65542603 18.06182861 C-11.59626415 13.51848399 -11.51396762 11.63669217 -8.57409668 7.99484253 C-7.29991882 7.00739548 -7.29991882 7.00739548 -6 6 C-5.40574219 5.40574219 -4.81148437 4.81148437 -4.19921875 4.19921875 C-2.09960938 2.09960938 -2.09960938 2.09960938 0 0 Z " fill="#CBCDBD" transform="translate(53,148)"/>
<path d="M0 0 C0.33 0.99 0.66 1.98 1 3 C0.113125 3.70125 -0.77375 4.4025 -1.6875 5.125 C-3.92398397 6.97298676 -5.77231824 8.84451368 -7.5625 11.125 C-9.91925258 13.90475945 -11.68894714 15.51873951 -15 17 C-15.99 16.67 -16.98 16.34 -18 16 C-15.37854824 13.51705852 -12.75225183 11.03930236 -10.125 8.5625 C-9.37863281 7.85544922 -8.63226563 7.14839844 -7.86328125 6.41992188 C-7.14785156 5.74638672 -6.43242188 5.07285156 -5.6953125 4.37890625 C-5.03547363 3.7557251 -4.37563477 3.13254395 -3.69580078 2.49047852 C-2 1 -2 1 0 0 Z " fill="#D7EDDB" transform="translate(79,70)"/>
<path d="M0 0 C0.66 0.33 1.32 0.66 2 1 C-0.62849702 5.41587499 -3.42603378 8.4639401 -7.4140625 11.703125 C-9.12348801 13.05697421 -9.12348801 13.05697421 -11 15 C-12.32 14.67 -13.64 14.34 -15 14 C-10.05 9.38 -5.1 4.76 0 0 Z " fill="#E5EEDE" transform="translate(78,126)"/>
<path d="M0 0 C0.66 0.33 1.32 0.66 2 1 C1.28972656 1.71285156 0.57945313 2.42570313 -0.15234375 3.16015625 C-1.08150485 4.12685921 -2.00984729 5.09434949 -2.9375 6.0625 C-4.31228516 7.47208984 -4.31228516 7.47208984 -5.71484375 8.91015625 C-8.29852134 12.40364168 -8.74848829 14.71359839 -9 19 C-9.33 19 -9.66 19 -10 19 C-10.66154458 15.47911273 -10.82384089 12.50374684 -10 9 C-7.05449591 5.47056264 -3.68808329 2.72654729 0 0 Z " fill="#D6E0D0" transform="translate(53,148)"/>
<path d="M0 0 C0 3.51700839 -0.69225467 4.36436147 -2.75 7.125 C-3.26046875 7.82882813 -3.7709375 8.53265625 -4.296875 9.2578125 C-6.23431805 11.23969232 -7.28689741 11.64751029 -10 12 C-10.99 12 -11.98 12 -13 12 C-8.84792208 7.7373638 -4.63678779 3.73204871 0 0 Z " fill="#D7D1C2" transform="translate(102,105)"/>
<path d="M0 0 C0.66 0.33 1.32 0.66 2 1 C-4.46813725 9.25245098 -4.46813725 9.25245098 -10 10 C-6.66666667 6.66666667 -3.33333333 3.33333333 0 0 Z " fill="#DBC9C2" transform="translate(35,108)"/>
<path d="M0 0 C4.94515667 2.62711448 8.87775489 6.26645294 13 10 C9.21823079 10 7.23032218 8.92444725 4 7 C2.75 4.875 2.75 4.875 2 3 C1.34 2.67 0.68 2.34 0 2 C0 1.34 0 0.68 0 0 Z " fill="#E6D0C3" transform="translate(210,72)"/>
<path d="M0 0 C0.66 0.33 1.32 0.66 2 1 C0.625 3.5 0.625 3.5 -1 6 C-1.66 6 -2.32 6 -3 6 C-3.33 6.66 -3.66 7.32 -4 8 C-4.66 7.34 -5.32 6.68 -6 6 C-4.02 4.02 -2.04 2.04 0 0 Z " fill="#BAC3B5" transform="translate(61,141)"/>
<path d="M0 0 C1.31611677 0.95336021 2.62778961 1.91285774 3.9375 2.875 C4.66839844 3.40867187 5.39929688 3.94234375 6.15234375 4.4921875 C8 6 8 6 9 8 C8.4225 7.690625 7.845 7.38125 7.25 7.0625 C5.15705816 6.07416636 3.25464725 5.4831387 1 5 C0.67 3.35 0.34 1.7 0 0 Z " fill="#E7D0BD" transform="translate(195,114)"/>
<path d="M0 0 C0.763125 0.309375 1.52625 0.61875 2.3125 0.9375 C4.18789677 1.67893593 6.08684652 2.36228217 8 3 C7.67 4.32 7.34 5.64 7 7 C5.83040013 6.02433888 4.66438823 5.044375 3.5 4.0625 C2.8503125 3.51722656 2.200625 2.97195312 1.53125 2.41015625 C1.0259375 1.94480469 0.520625 1.47945313 0 1 C0 0.67 0 0.34 0 0 Z " fill="#DECDC2" transform="translate(190,88)"/>
<path d="M0 0 C2.64 1.98 5.28 3.96 8 6 C7.67 6.66 7.34 7.32 7 8 C4.0625 6.8125 4.0625 6.8125 1 5 C0.125 2.3125 0.125 2.3125 0 0 Z " fill="#F0D8BF" transform="translate(264,119)"/>
<path d="M0 0 C0.66 0.33 1.32 0.66 2 1 C0.02 3.97 0.02 3.97 -2 7 C-3.32 6.67 -4.64 6.34 -6 6 C-4.02 4.02 -2.04 2.04 0 0 Z " fill="#C2E9CC" transform="translate(67,80)"/>
<path d="M0 0 C0.66 0.33 1.32 0.66 2 1 C1.34 1.66 0.68 2.32 0 3 C-0.69748583 4.31747324 -1.36959957 5.64914193 -2 7 C-3.32 6.67 -4.64 6.34 -6 6 C-4.02 4.02 -2.04 2.04 0 0 Z " fill="#C4D3BD" transform="translate(69,134)"/>
<path d="M0 0 C1.14926266 0.95421808 2.29430541 1.91352045 3.4375 2.875 C4.07558594 3.40867188 4.71367187 3.94234375 5.37109375 4.4921875 C7 6 7 6 8 8 C5.6875 7.8125 5.6875 7.8125 3 7 C0 2.96551724 0 2.96551724 0 0 Z " fill="#E9CDBE" transform="translate(209,126)"/>
<path d="M0 0 C3.53600465 1.91135386 5.78972846 3.62642766 8 7 C6.35 6.67 4.7 6.34 3 6 C2.67 5.01 2.34 4.02 2 3 C1.34 2.67 0.68 2.34 0 2 C0 1.34 0 0.68 0 0 Z " fill="#E3C0AC" transform="translate(224,140)"/>
</svg>
