<svg xmlns="http://www.w3.org/2000/svg" xmlns:xlink="http://www.w3.org/1999/xlink" width="1024" zoomAndPan="magnify" viewBox="0 0 768 767.999994" height="1024" preserveAspectRatio="xMidYMid meet" version="1.0"><defs><clipPath id="22f9af5152"><path d="M 106.871094 107.910156 L 661.121094 107.910156 L 661.121094 659.910156 L 106.871094 659.910156 Z M 106.871094 107.910156 " clip-rule="nonzero"/></clipPath><clipPath id="6929d5443f"><path d="M 106.871094 107.910156 L 661.121094 107.910156 L 661.121094 659.910156 L 106.871094 659.910156 Z M 106.871094 107.910156 " clip-rule="nonzero"/></clipPath></defs><g clip-path="url(#22f9af5152)"><path fill="#e6e6e6" d="M 220.488281 278.792969 L 232.828125 285.609375 C 239.320312 289.183594 243.21875 296.652344 242.894531 304.121094 C 242.242188 311.585938 237.699219 318.082031 230.878906 321.003906 L 148.402344 355.421875 C 142.882812 357.695312 136.710938 357.371094 131.515625 354.449219 C 125.996094 351.527344 122.425781 346.332031 121.449219 340.488281 L 107.164062 252.488281 C 105.863281 245.023438 109.113281 237.554688 115.28125 233.007812 C 121.449219 228.785156 129.570312 228.460938 136.0625 232.035156 L 149.699219 239.828125 C 200.03125 158.324219 288.675781 107.992188 385.117188 107.992188 C 458.824219 107.992188 527.988281 136.894531 580.269531 188.847656 C 632.222656 241.125 661.121094 310.289062 661.121094 384 C 661.121094 457.707031 632.222656 527.195312 580.269531 579.148438 C 527.988281 631.429688 458.824219 660.003906 385.117188 660.003906 C 320.175781 660.003906 256.855469 636.949219 207.175781 595.0625 C 157.492188 553.496094 124.046875 495.375 113.007812 431.40625 L 109.761719 410.949219 C 107.8125 400.234375 114.957031 390.167969 125.671875 388.21875 L 166.261719 381.074219 C 176.976562 379.453125 187.367188 386.597656 188.992188 397.3125 L 192.5625 417.445312 C 208.796875 511.609375 289.652344 579.472656 385.117188 579.472656 C 492.597656 579.472656 580.269531 491.800781 580.269531 384 C 580.269531 276.519531 492.597656 188.847656 385.117188 188.847656 C 317.902344 188.847656 256.207031 222.941406 220.488281 278.792969 Z M 311.730469 495.375 C 308.484375 495.375 305.238281 494.398438 302.316406 492.777344 C 295.820312 489.203125 291.925781 482.710938 291.925781 475.566406 L 291.925781 292.753906 C 291.925781 285.609375 295.820312 278.792969 302.316406 275.542969 C 308.484375 271.972656 316.277344 272.296875 322.121094 275.871094 L 466.617188 367.4375 C 472.464844 371.011719 475.710938 377.503906 475.710938 384 C 475.710938 390.816406 472.464844 396.988281 466.617188 400.558594 L 322.121094 492.128906 C 319.199219 494.074219 315.304688 495.375 311.730469 495.375 Z M 311.730469 495.375 " fill-opacity="1" fill-rule="evenodd"/></g><path fill="#ffffff" d="M 385.117188 647.664062 C 323.097656 647.664062 262.699219 625.582031 215.292969 585.644531 C 167.882812 545.703125 135.738281 490.179688 125.347656 429.132812 L 121.777344 408.675781 C 121.125 404.78125 123.722656 401.207031 127.621094 400.558594 L 168.535156 393.414062 C 172.429688 392.765625 176.003906 395.363281 176.976562 399.257812 L 180.222656 419.714844 C 197.433594 519.402344 283.480469 591.8125 385.117188 591.8125 C 499.738281 591.8125 592.933594 498.621094 592.933594 384 C 592.933594 269.699219 499.738281 176.507812 385.117188 176.507812 C 309.457031 176.507812 239.96875 217.421875 203.277344 283.664062 L 226.65625 296.652344 C 229.253906 297.949219 230.554688 300.546875 230.554688 303.144531 C 230.230469 306.066406 228.605469 308.339844 226.007812 309.640625 L 143.53125 343.734375 C 141.582031 344.707031 139.308594 344.707031 137.363281 343.410156 C 135.414062 342.433594 134.113281 340.488281 133.789062 338.214844 L 119.175781 250.542969 C 118.851562 247.621094 120.152344 245.023438 122.425781 243.398438 C 124.699219 241.773438 127.621094 241.449219 129.894531 242.75 L 154.570312 256.386719 C 201.003906 172.609375 289 120.65625 385.117188 120.65625 C 455.578125 120.65625 521.496094 147.933594 571.5 197.613281 C 621.179688 247.621094 648.457031 313.859375 648.457031 384 C 648.457031 454.460938 621.179688 520.703125 571.5 570.382812 C 521.496094 620.386719 455.578125 647.664062 385.117188 647.664062 Z M 385.117188 647.664062 " fill-opacity="1" fill-rule="evenodd"/><path fill="#ffffff" d="M 311.730469 482.710938 C 310.433594 482.710938 309.457031 482.386719 308.160156 482.0625 C 305.886719 480.761719 304.589844 478.164062 304.589844 475.566406 L 304.589844 292.753906 C 304.589844 289.832031 305.886719 287.558594 308.160156 286.261719 C 310.433594 284.960938 313.355469 284.960938 315.628906 286.585938 L 460.125 378.152344 C 462.074219 379.453125 463.371094 381.726562 463.371094 384 C 463.371094 386.597656 462.074219 388.867188 460.125 390.167969 L 315.628906 481.738281 C 314.328125 482.386719 313.03125 482.710938 311.730469 482.710938 Z M 311.730469 482.710938 " fill-opacity="1" fill-rule="evenodd"/><g clip-path="url(#6929d5443f)"><path fill="#e6e6e6" d="M 220.488281 278.792969 L 232.828125 285.609375 C 239.320312 289.183594 243.21875 296.652344 242.894531 304.121094 C 242.242188 311.585938 237.699219 318.082031 230.878906 321.003906 L 148.402344 355.421875 C 142.882812 357.695312 136.710938 357.371094 131.515625 354.449219 C 125.996094 351.527344 122.425781 346.332031 121.449219 340.488281 L 107.164062 252.488281 C 105.863281 245.023438 109.113281 237.554688 115.28125 233.007812 C 121.449219 228.785156 129.570312 228.460938 136.0625 232.035156 L 149.699219 239.828125 C 200.03125 158.324219 288.675781 107.992188 385.117188 107.992188 C 458.824219 107.992188 527.988281 136.894531 580.269531 188.847656 C 632.222656 241.125 661.121094 310.289062 661.121094 384 C 661.121094 457.707031 632.222656 527.195312 580.269531 579.148438 C 527.988281 631.429688 458.824219 660.003906 385.117188 660.003906 C 320.175781 660.003906 256.855469 636.949219 207.175781 595.0625 C 157.492188 553.496094 124.046875 495.375 113.007812 431.40625 L 109.761719 410.949219 C 107.8125 400.234375 114.957031 390.167969 125.671875 388.21875 L 166.261719 381.074219 C 176.976562 379.453125 187.367188 386.597656 188.992188 397.3125 L 192.5625 417.445312 C 208.796875 511.609375 289.652344 579.472656 385.117188 579.472656 C 492.597656 579.472656 580.269531 491.800781 580.269531 384 C 580.269531 276.519531 492.597656 188.847656 385.117188 188.847656 C 317.902344 188.847656 256.207031 222.941406 220.488281 278.792969 Z M 311.730469 495.375 C 308.484375 495.375 305.238281 494.398438 302.316406 492.777344 C 295.820312 489.203125 291.925781 482.710938 291.925781 475.566406 L 291.925781 292.753906 C 291.925781 285.609375 295.820312 278.792969 302.316406 275.542969 C 308.484375 271.972656 316.277344 272.296875 322.121094 275.871094 L 466.617188 367.4375 C 472.464844 371.011719 475.710938 377.503906 475.710938 384 C 475.710938 390.816406 472.464844 396.988281 466.617188 400.558594 L 322.121094 492.128906 C 319.199219 494.074219 315.304688 495.375 311.730469 495.375 Z M 311.730469 495.375 " fill-opacity="1" fill-rule="evenodd"/></g><path fill="#ffffff" d="M 385.117188 647.664062 C 323.097656 647.664062 262.699219 625.582031 215.292969 585.644531 C 167.882812 545.703125 135.738281 490.179688 125.347656 429.132812 L 121.777344 408.675781 C 121.125 404.78125 123.722656 401.207031 127.621094 400.558594 L 168.535156 393.414062 C 172.429688 392.765625 176.003906 395.363281 176.976562 399.257812 L 180.222656 419.714844 C 197.433594 519.402344 283.480469 591.8125 385.117188 591.8125 C 499.738281 591.8125 592.933594 498.621094 592.933594 384 C 592.933594 269.699219 499.738281 176.507812 385.117188 176.507812 C 309.457031 176.507812 239.96875 217.421875 203.277344 283.664062 L 226.65625 296.652344 C 229.253906 297.949219 230.554688 300.546875 230.554688 303.144531 C 230.230469 306.066406 228.605469 308.339844 226.007812 309.640625 L 143.53125 343.734375 C 141.582031 344.707031 139.308594 344.707031 137.363281 343.410156 C 135.414062 342.433594 134.113281 340.488281 133.789062 338.214844 L 119.175781 250.542969 C 118.851562 247.621094 120.152344 245.023438 122.425781 243.398438 C 124.699219 241.773438 127.621094 241.449219 129.894531 242.75 L 154.570312 256.386719 C 201.003906 172.609375 289 120.65625 385.117188 120.65625 C 455.578125 120.65625 521.496094 147.933594 571.5 197.613281 C 621.179688 247.621094 648.457031 313.859375 648.457031 384 C 648.457031 454.460938 621.179688 520.703125 571.5 570.382812 C 521.496094 620.386719 455.578125 647.664062 385.117188 647.664062 Z M 385.117188 647.664062 " fill-opacity="1" fill-rule="evenodd"/><path fill="#ffffff" d="M 311.730469 482.710938 C 310.433594 482.710938 309.457031 482.386719 308.160156 482.0625 C 305.886719 480.761719 304.589844 478.164062 304.589844 475.566406 L 304.589844 292.753906 C 304.589844 289.832031 305.886719 287.558594 308.160156 286.261719 C 310.433594 284.960938 313.355469 284.960938 315.628906 286.585938 L 460.125 378.152344 C 462.074219 379.453125 463.371094 381.726562 463.371094 384 C 463.371094 386.597656 462.074219 388.867188 460.125 390.167969 L 315.628906 481.738281 C 314.328125 482.386719 313.03125 482.710938 311.730469 482.710938 Z M 311.730469 482.710938 " fill-opacity="1" fill-rule="evenodd"/></svg>