<svg xmlns="http://www.w3.org/2000/svg" xmlns:xlink="http://www.w3.org/1999/xlink" width="1024" zoomAndPan="magnify" viewBox="0 0 768 767.999994" height="1024" preserveAspectRatio="xMidYMid meet" version="1.0"><defs><clipPath id="9ccaa74538"><path d="M 24 88 L 596 88 L 596 733.636719 L 24 733.636719 Z M 24 88 " clip-rule="nonzero"/></clipPath></defs><g clip-path="url(#9ccaa74538)"><path fill="#ffffff" d="M 538.464844 343.054688 L 538.464844 332.332031 C 541.824219 326.523438 550.089844 308.3125 544.921875 276.796875 C 540.660156 249.804688 533.6875 234.433594 530.199219 227.847656 C 535.238281 218.421875 544.535156 192.71875 519.09375 157.589844 C 423.355469 56.617188 48.453125 34.5625 25.082031 313.222656 C 18.238281 402.464844 56.59375 494.164062 125.433594 552.796875 C 125.691406 553.054688 159.402344 582.890625 120.785156 725.347656 C 119.625 729.265625 122.804688 733.667969 126.984375 733.484375 C 126.984375 733.484375 381.542969 733.484375 381.542969 733.484375 C 383.609375 733.484375 385.546875 732.578125 386.839844 730.898438 C 388 729.09375 388.261719 727.027344 387.613281 724.957031 C 379.21875 700.421875 369.402344 656.121094 378.574219 641.914062 C 380.355469 639.15625 382.890625 638.050781 386.066406 637.78125 C 426.230469 645.140625 468.851562 646.5625 471.046875 646.5625 C 472.082031 646.691406 496.75 651.082031 512.375 637.910156 C 520.640625 631.0625 524.773438 620.992188 524.773438 608.074219 C 524.773438 570.234375 543.375 544.144531 543.632812 543.886719 C 545.800781 540.96875 544.8125 536.355469 541.695312 534.585938 C 541.695312 534.585938 506.695312 513.921875 506.695312 513.921875 L 543.890625 499.199219 C 547.117188 497.90625 548.796875 494.292969 547.507812 490.933594 C 547.117188 489.773438 537.5625 463.035156 557.578125 455.03125 C 566.75 451.285156 574.757812 448.183594 581.214844 445.859375 C 594.300781 441.425781 599.335938 423.882812 590.773438 413.054688 C 590.773438 413.054688 538.464844 343.054688 538.464844 343.054688 Z M 538.464844 343.054688 " fill-opacity="1" fill-rule="nonzero"/></g><path fill="#ffffff" d="M 613.625 482.660156 C 607.703125 486.640625 606.132812 494.667969 610.117188 500.582031 C 622.714844 518.84375 622.714844 545.089844 610.117188 563.347656 C 600.761719 577.34375 622.003906 591.773438 631.546875 577.765625 C 649.988281 551.03125 649.992188 512.898438 631.546875 486.164062 C 627.574219 480.25 619.539062 478.667969 613.625 482.660156 Z M 613.625 482.660156 " fill-opacity="1" fill-rule="nonzero"/><path fill="#ffffff" d="M 670.859375 459.980469 C 661.40625 446.035156 640.046875 460.3125 649.433594 474.398438 C 672.617188 508.046875 672.613281 555.882812 649.433594 589.53125 C 643.53125 597.734375 650.164062 609.941406 660.132812 609.65625 C 664.289062 609.65625 668.371094 607.65625 670.859375 603.949219 C 699.886719 561.820312 699.890625 502.113281 670.859375 459.980469 Z M 670.859375 459.980469 " fill-opacity="1" fill-rule="nonzero"/><path fill="#ffffff" d="M 711.308594 433.011719 C 701.898438 419.035156 680.503906 433.199219 689.820312 447.339844 C 723.628906 496.859375 723.625 567.070312 689.816406 616.59375 C 683.976562 624.792969 690.597656 636.964844 700.550781 636.671875 C 704.726562 636.671875 708.824219 634.65625 711.308594 630.921875 C 750.878906 572.945312 750.882812 490.988281 711.308594 433.011719 Z M 711.308594 433.011719 " fill-opacity="1" fill-rule="nonzero"/></svg>