<svg xmlns="http://www.w3.org/2000/svg" xmlns:xlink="http://www.w3.org/1999/xlink" width="1024" zoomAndPan="magnify" viewBox="0 0 768 767.999994" height="1024" preserveAspectRatio="xMidYMid meet" version="1.0"><defs><clipPath id="05f66c03a8"><path d="M 42.425781 42.425781 L 725.675781 42.425781 L 725.675781 725.675781 L 42.425781 725.675781 Z M 42.425781 42.425781 " clip-rule="nonzero"/></clipPath></defs><g clip-path="url(#05f66c03a8)"><path fill="#ffffff" d="M 42.425781 149.484375 L 149.484375 42.425781 L 383.996094 276.9375 L 618.507812 42.425781 L 725.570312 149.484375 L 485.960938 383.996094 L 725.570312 618.507812 L 618.507812 725.570312 L 383.996094 485.960938 L 149.484375 725.570312 L 42.425781 618.507812 L 276.9375 383.996094 Z M 42.425781 149.484375 " fill-opacity="1" fill-rule="evenodd"/><path fill="#ffffff" d="M 42.425781 149.484375 L 149.484375 42.425781 L 383.996094 276.9375 L 618.507812 42.425781 L 725.570312 149.484375 L 485.960938 383.996094 L 725.570312 618.507812 L 618.507812 725.570312 L 383.996094 485.960938 L 149.484375 725.570312 L 42.425781 618.507812 L 276.9375 383.996094 Z M 42.425781 149.484375 " fill-opacity="1" fill-rule="evenodd"/></g></svg>