<svg xmlns="http://www.w3.org/2000/svg" xmlns:xlink="http://www.w3.org/1999/xlink" width="1024" zoomAndPan="magnify" viewBox="0 0 768 767.999994" height="1024" preserveAspectRatio="xMidYMid meet" version="1.0"><defs><clipPath id="63b68fc0c3"><path d="M 37 33 L 465 33 L 465 736.941406 L 37 736.941406 Z M 37 33 " clip-rule="nonzero"/></clipPath></defs><g clip-path="url(#63b68fc0c3)"><path fill="#ffffff" d="M 450.125 36.191406 C 441.46875 32.007812 431.070312 33.171875 423.59375 39.183594 L 178.566406 234.585938 L 62.578125 234.585938 C 48.699219 234.585938 37.46875 245.828125 37.46875 259.695312 L 37.46875 510.804688 C 37.46875 524.671875 48.699219 535.914062 62.578125 535.914062 L 178.566406 535.914062 L 423.59375 731.320312 C 428.105469 734.9375 433.648438 736.800781 439.238281 736.800781 C 442.941406 736.800781 446.667969 735.976562 450.125 734.308594 C 458.832031 730.128906 464.347656 721.339844 464.347656 711.6875 L 464.347656 58.8125 C 464.347656 49.164062 458.832031 40.371094 450.125 36.191406 Z M 450.125 36.191406 " fill-opacity="1" fill-rule="nonzero"/></g><path fill="#ffffff" d="M 496.816406 267.054688 C 487.007812 276.863281 487.007812 292.753906 496.816406 302.5625 C 536.222656 341.980469 536.222656 428.519531 496.816406 467.9375 C 487.007812 477.746094 487.007812 493.636719 496.816406 503.445312 C 501.71875 508.351562 508.144531 510.804688 514.570312 510.804688 C 520.996094 510.804688 527.417969 508.351562 532.324219 503.445312 C 590.882812 444.898438 590.882812 325.601562 532.324219 267.054688 C 522.515625 257.246094 506.625 257.246094 496.816406 267.054688 Z M 496.816406 267.054688 " fill-opacity="1" fill-rule="nonzero"/><path fill="#ffffff" d="M 658.660156 192.53125 C 649.292969 182.292969 633.355469 181.59375 623.179688 190.949219 C 612.953125 200.304688 612.242188 216.183594 621.585938 226.421875 C 656.847656 264.980469 678.449219 325.574219 679.359375 388.5 C 680.289062 452.871094 659.8125 509 623.179688 542.484375 C 612.953125 551.855469 612.242188 567.730469 621.585938 577.96875 C 626.539062 583.390625 633.332031 586.136719 640.121094 586.136719 C 646.179688 586.136719 652.238281 583.964844 657.066406 579.5625 C 704.273438 536.390625 730.707031 466.492188 729.578125 387.777344 C 728.5 312.898438 701.992188 239.921875 658.660156 192.53125 Z M 658.660156 192.53125 " fill-opacity="1" fill-rule="nonzero"/></svg>