<svg xmlns="http://www.w3.org/2000/svg" xmlns:xlink="http://www.w3.org/1999/xlink" width="1024" zoomAndPan="magnify" viewBox="0 0 768 767.999994" height="1024" preserveAspectRatio="xMidYMid meet" version="1.0"><defs><clipPath id="94da0c3a98"><path d="M 47.050781 50.113281 L 497 50.113281 L 497 500 L 47.050781 500 Z M 47.050781 50.113281 " clip-rule="nonzero"/></clipPath><clipPath id="ff7f064773"><path d="M 494 490 L 719 490 L 719 717.613281 L 494 717.613281 Z M 494 490 " clip-rule="nonzero"/></clipPath></defs><g clip-path="url(#94da0c3a98)"><path fill="#ffffff" d="M 271.96875 499.5 C 148.070312 499.5 47.261719 398.707031 47.261719 274.792969 C 47.261719 150.878906 148.054688 50.082031 271.96875 50.082031 C 395.886719 50.082031 496.679688 150.878906 496.679688 274.792969 C 496.679688 398.707031 395.871094 499.5 271.96875 499.5 Z M 271.96875 87.042969 C 268.898438 87.042969 265.828125 87.117188 262.757812 87.269531 C 259.6875 87.417969 256.625 87.644531 253.566406 87.945312 C 250.507812 88.246094 247.460938 88.625 244.421875 89.074219 C 241.382812 89.523438 238.355469 90.050781 235.339844 90.648438 C 232.328125 91.25 229.332031 91.921875 226.351562 92.667969 C 223.371094 93.414062 220.410156 94.234375 217.46875 95.125 C 214.527344 96.019531 211.613281 96.980469 208.71875 98.015625 C 205.824219 99.050781 202.960938 100.15625 200.121094 101.332031 C 197.28125 102.511719 194.472656 103.753906 191.695312 105.066406 C 188.917969 106.382812 186.175781 107.761719 183.464844 109.210938 C 180.753906 110.660156 178.082031 112.175781 175.445312 113.753906 C 172.8125 115.332031 170.214844 116.976562 167.660156 118.683594 C 165.105469 120.390625 162.59375 122.160156 160.128906 123.988281 C 157.660156 125.820312 155.238281 127.710938 152.863281 129.660156 C 150.488281 131.609375 148.160156 133.617188 145.886719 135.679688 C 143.609375 137.742188 141.382812 139.859375 139.210938 142.03125 C 137.039062 144.207031 134.917969 146.429688 132.855469 148.707031 C 130.792969 150.984375 128.785156 153.308594 126.835938 155.683594 C 124.886719 158.058594 123 160.480469 121.167969 162.949219 C 119.335938 165.417969 117.570312 167.929688 115.863281 170.484375 C 114.15625 173.039062 112.511719 175.632812 110.929688 178.269531 C 109.351562 180.90625 107.835938 183.578125 106.390625 186.289062 C 104.941406 188.996094 103.558594 191.742188 102.246094 194.519531 C 100.933594 197.296875 99.6875 200.105469 98.511719 202.945312 C 97.335938 205.78125 96.230469 208.648438 95.195312 211.542969 C 94.160156 214.433594 93.195312 217.351562 92.304688 220.292969 C 91.414062 223.230469 90.59375 226.191406 89.847656 229.171875 C 89.101562 232.152344 88.425781 235.152344 87.828125 238.164062 C 87.226562 241.179688 86.703125 244.203125 86.253906 247.242188 C 85.800781 250.285156 85.425781 253.332031 85.125 256.390625 C 84.824219 259.449219 84.597656 262.511719 84.445312 265.578125 C 84.296875 268.648438 84.21875 271.71875 84.21875 274.792969 C 84.21875 277.863281 84.296875 280.9375 84.445312 284.003906 C 84.597656 287.074219 84.824219 290.136719 85.125 293.195312 C 85.425781 296.253906 85.800781 299.300781 86.253906 302.339844 C 86.703125 305.378906 87.226562 308.40625 87.828125 311.421875 C 88.425781 314.433594 89.101562 317.429688 89.847656 320.410156 C 90.59375 323.394531 91.414062 326.351562 92.304688 329.292969 C 93.195312 332.234375 94.160156 335.152344 95.195312 338.042969 C 96.230469 340.9375 97.335938 343.800781 98.511719 346.640625 C 99.6875 349.480469 100.933594 352.289062 102.246094 355.066406 C 103.558594 357.84375 104.941406 360.585938 106.390625 363.296875 C 107.835938 366.007812 109.351562 368.679688 110.929688 371.316406 C 112.511719 373.949219 114.15625 376.546875 115.863281 379.101562 C 117.570312 381.65625 119.335938 384.167969 121.167969 386.636719 C 123 389.101562 124.886719 391.523438 126.835938 393.898438 C 128.785156 396.273438 130.792969 398.601562 132.855469 400.878906 C 134.917969 403.15625 137.039062 405.378906 139.210938 407.550781 C 141.382812 409.722656 143.609375 411.84375 145.886719 413.90625 C 148.160156 415.96875 150.488281 417.976562 152.863281 419.925781 C 155.238281 421.875 157.660156 423.765625 160.128906 425.59375 C 162.59375 427.425781 165.105469 429.195312 167.660156 430.902344 C 170.214844 432.609375 172.8125 434.25 175.445312 435.832031 C 178.082031 437.410156 180.753906 438.925781 183.464844 440.375 C 186.175781 441.820312 188.917969 443.203125 191.695312 444.515625 C 194.472656 445.832031 197.28125 447.074219 200.121094 448.25 C 202.960938 449.425781 205.824219 450.53125 208.71875 451.566406 C 211.613281 452.601562 214.527344 453.566406 217.46875 454.457031 C 220.410156 455.351562 223.371094 456.167969 226.351562 456.914062 C 229.332031 457.664062 232.328125 458.335938 235.339844 458.933594 C 238.355469 459.535156 241.382812 460.058594 244.421875 460.511719 C 247.460938 460.960938 250.507812 461.335938 253.566406 461.636719 C 256.625 461.941406 259.6875 462.164062 262.757812 462.316406 C 265.828125 462.46875 268.898438 462.542969 271.96875 462.542969 C 275.042969 462.542969 278.113281 462.46875 281.183594 462.316406 C 284.25 462.164062 287.316406 461.941406 290.371094 461.636719 C 293.429688 461.335938 296.480469 460.960938 299.519531 460.511719 C 302.558594 460.058594 305.585938 459.535156 308.597656 458.933594 C 311.613281 458.335938 314.609375 457.664062 317.589844 456.914062 C 320.570312 456.167969 323.53125 455.351562 326.472656 454.457031 C 329.410156 453.566406 332.328125 452.601562 335.222656 451.566406 C 338.113281 450.53125 340.980469 449.425781 343.820312 448.25 C 346.65625 447.074219 349.464844 445.832031 352.242188 444.515625 C 355.019531 443.203125 357.765625 441.820312 360.476562 440.375 C 363.183594 438.925781 365.855469 437.410156 368.492188 435.832031 C 371.128906 434.25 373.722656 432.609375 376.277344 430.902344 C 378.832031 429.195312 381.34375 427.425781 383.8125 425.59375 C 386.28125 423.765625 388.703125 421.875 391.078125 419.925781 C 393.453125 417.976562 395.777344 415.96875 398.054688 413.90625 C 400.332031 411.84375 402.558594 409.722656 404.730469 407.550781 C 406.902344 405.378906 409.019531 403.15625 411.082031 400.878906 C 413.148438 398.601562 415.152344 396.273438 417.101562 393.898438 C 419.050781 391.523438 420.941406 389.101562 422.773438 386.636719 C 424.601562 384.167969 426.371094 381.65625 428.078125 379.101562 C 429.785156 376.546875 431.429688 373.949219 433.007812 371.316406 C 434.589844 368.679688 436.101562 366.007812 437.550781 363.296875 C 439 360.585938 440.378906 357.84375 441.695312 355.066406 C 443.007812 352.289062 444.253906 349.480469 445.429688 346.640625 C 446.605469 343.800781 447.710938 340.9375 448.746094 338.042969 C 449.78125 335.152344 450.742188 332.234375 451.636719 329.292969 C 452.527344 326.351562 453.347656 323.394531 454.09375 320.410156 C 454.839844 317.429688 455.511719 314.433594 456.113281 311.421875 C 456.710938 308.40625 457.238281 305.378906 457.6875 302.339844 C 458.140625 299.300781 458.515625 296.253906 458.816406 293.195312 C 459.117188 290.136719 459.34375 287.074219 459.492188 284.003906 C 459.644531 280.9375 459.71875 277.863281 459.71875 274.792969 C 459.714844 271.722656 459.636719 268.652344 459.484375 265.582031 C 459.328125 262.515625 459.097656 259.453125 458.792969 256.398438 C 458.488281 253.34375 458.109375 250.292969 457.65625 247.257812 C 457.203125 244.21875 456.675781 241.195312 456.074219 238.183594 C 455.472656 235.171875 454.796875 232.175781 454.046875 229.195312 C 453.296875 226.21875 452.476562 223.257812 451.582031 220.320312 C 450.6875 217.382812 449.722656 214.46875 448.6875 211.578125 C 447.648438 208.6875 446.542969 205.820312 445.363281 202.984375 C 444.1875 200.148438 442.941406 197.339844 441.625 194.566406 C 440.3125 191.789062 438.929688 189.046875 437.480469 186.339844 C 436.03125 183.632812 434.515625 180.960938 432.9375 178.328125 C 431.355469 175.695312 429.710938 173.101562 428.003906 170.546875 C 426.296875 167.992188 424.527344 165.484375 422.699219 163.019531 C 420.867188 160.550781 418.976562 158.132812 417.027344 155.757812 C 415.078125 153.382812 413.074219 151.058594 411.011719 148.785156 C 408.949219 146.507812 406.832031 144.285156 404.660156 142.113281 C 402.488281 139.941406 400.261719 137.824219 397.988281 135.761719 C 395.710938 133.699219 393.386719 131.691406 391.011719 129.746094 C 388.636719 127.796875 386.21875 125.90625 383.75 124.078125 C 381.285156 122.246094 378.773438 120.476562 376.21875 118.769531 C 373.667969 117.0625 371.074219 115.421875 368.4375 113.839844 C 365.804688 112.261719 363.132812 110.746094 360.425781 109.296875 C 357.71875 107.847656 354.976562 106.46875 352.199219 105.152344 C 349.421875 103.839844 346.617188 102.59375 343.78125 101.414062 C 340.941406 100.238281 338.078125 99.132812 335.1875 98.097656 C 332.296875 97.058594 329.382812 96.09375 326.441406 95.199219 C 323.503906 94.308594 320.546875 93.488281 317.566406 92.738281 C 314.585938 91.988281 311.59375 91.316406 308.582031 90.714844 C 305.570312 90.109375 302.542969 89.582031 299.503906 89.128906 C 296.46875 88.675781 293.421875 88.296875 290.363281 87.996094 C 287.308594 87.691406 284.246094 87.460938 281.179688 87.308594 C 278.109375 87.152344 275.042969 87.074219 271.96875 87.070312 Z M 271.96875 87.042969 " fill-opacity="1" fill-rule="nonzero"/></g><path fill="#ffffff" d="M 434.234375 523.789062 C 433.21875 523.789062 432.207031 523.714844 431.203125 523.566406 C 430.195312 523.417969 429.207031 523.195312 428.234375 522.902344 C 427.261719 522.609375 426.316406 522.246094 425.398438 521.8125 C 424.480469 521.375 423.597656 520.878906 422.75 520.316406 C 421.90625 519.75 421.105469 519.128906 420.351562 518.445312 C 419.597656 517.765625 418.898438 517.03125 418.253906 516.25 C 417.609375 515.464844 417.023438 514.636719 416.5 513.765625 C 415.972656 512.894531 415.515625 511.992188 415.125 511.054688 C 414.734375 510.113281 414.414062 509.152344 414.167969 508.167969 C 413.917969 507.183594 413.742188 506.183594 413.640625 505.175781 C 413.539062 504.164062 413.511719 503.148438 413.558594 502.136719 C 413.605469 501.121094 413.726562 500.113281 413.921875 499.117188 C 414.117188 498.121094 414.382812 497.140625 414.722656 496.183594 C 415.0625 495.226562 415.46875 494.296875 415.945312 493.402344 C 416.421875 492.503906 416.960938 491.644531 417.5625 490.828125 C 418.164062 490.007812 418.824219 489.238281 419.539062 488.515625 L 476.765625 430.863281 C 477.230469 430.332031 477.71875 429.832031 478.234375 429.351562 C 478.75 428.875 479.289062 428.421875 479.851562 428 C 480.410156 427.578125 480.992188 427.183594 481.59375 426.820312 C 482.195312 426.457031 482.816406 426.125 483.449219 425.824219 C 484.085938 425.523438 484.734375 425.253906 485.398438 425.019531 C 486.058594 424.785156 486.734375 424.585938 487.417969 424.417969 C 488.101562 424.25 488.789062 424.121094 489.484375 424.023438 C 490.183594 423.929688 490.882812 423.867188 491.585938 423.84375 C 492.289062 423.820312 492.988281 423.832031 493.691406 423.878906 C 494.390625 423.925781 495.089844 424.007812 495.78125 424.125 C 496.476562 424.242188 497.160156 424.394531 497.839844 424.582031 C 498.515625 424.773438 499.183594 424.992188 499.835938 425.25 C 500.492188 425.503906 501.132812 425.792969 501.757812 426.113281 C 502.382812 426.433594 502.992188 426.789062 503.582031 427.171875 C 504.171875 427.554688 504.738281 427.964844 505.285156 428.40625 C 505.835938 428.847656 506.359375 429.3125 506.859375 429.808594 C 507.359375 430.304688 507.832031 430.820312 508.277344 431.363281 C 508.726562 431.90625 509.144531 432.46875 509.535156 433.054688 C 509.925781 433.640625 510.28125 434.242188 510.609375 434.867188 C 510.9375 435.488281 511.234375 436.125 511.5 436.777344 C 511.761719 437.425781 511.992188 438.089844 512.1875 438.765625 C 512.382812 439.441406 512.542969 440.125 512.667969 440.816406 C 512.796875 441.507812 512.886719 442.203125 512.941406 442.90625 C 512.996094 443.605469 513.015625 444.308594 513 445.011719 C 512.984375 445.714844 512.929688 446.414062 512.84375 447.113281 C 512.753906 447.808594 512.632812 448.5 512.472656 449.1875 C 512.316406 449.871094 512.125 450.546875 511.898438 451.210938 C 511.667969 451.875 511.410156 452.527344 511.117188 453.167969 C 510.824219 453.808594 510.496094 454.429688 510.140625 455.035156 C 509.785156 455.640625 509.398438 456.226562 508.980469 456.792969 C 508.5625 457.359375 508.117188 457.902344 507.648438 458.425781 C 507.175781 458.945312 506.675781 459.441406 506.15625 459.910156 L 448.929688 517.566406 C 447.96875 518.546875 446.925781 519.421875 445.792969 520.191406 C 444.664062 520.964844 443.464844 521.617188 442.203125 522.152344 C 440.945312 522.6875 439.640625 523.089844 438.300781 523.367188 C 436.960938 523.644531 435.601562 523.785156 434.234375 523.789062 Z M 434.234375 523.789062 " fill-opacity="1" fill-rule="nonzero"/><g clip-path="url(#ff7f064773)"><path fill="#ffffff" d="M 682.566406 717.867188 C 680.203125 717.871094 677.859375 717.640625 675.542969 717.175781 C 673.222656 716.710938 670.972656 716.019531 668.792969 715.101562 C 666.613281 714.1875 664.546875 713.0625 662.589844 711.730469 C 660.636719 710.398438 658.835938 708.886719 657.183594 707.195312 L 504.914062 551.257812 C 504.101562 550.425781 503.332031 549.558594 502.605469 548.652344 C 501.878906 547.742188 501.199219 546.804688 500.5625 545.828125 C 499.929688 544.855469 499.34375 543.851562 498.808594 542.820312 C 498.273438 541.789062 497.789062 540.734375 497.355469 539.65625 C 496.921875 538.578125 496.542969 537.480469 496.21875 536.363281 C 495.894531 535.25 495.625 534.117188 495.414062 532.976562 C 495.199219 531.835938 495.042969 530.683594 494.941406 529.527344 C 494.84375 528.367188 494.796875 527.207031 494.8125 526.046875 C 494.824219 524.882812 494.894531 523.726562 495.023438 522.570312 C 495.152344 521.414062 495.335938 520.269531 495.574219 519.132812 C 495.816406 517.992188 496.109375 516.871094 496.460938 515.761719 C 496.808594 514.65625 497.214844 513.566406 497.671875 512.5 C 498.128906 511.429688 498.636719 510.386719 499.195312 509.367188 C 499.757812 508.347656 500.363281 507.359375 501.023438 506.402344 C 501.679688 505.441406 502.382812 504.519531 503.128906 503.628906 C 503.875 502.738281 504.664062 501.886719 505.496094 501.074219 C 506.328125 500.261719 507.199219 499.492188 508.105469 498.765625 C 509.011719 498.039062 509.953125 497.359375 510.925781 496.726562 C 511.898438 496.089844 512.902344 495.503906 513.933594 494.96875 C 514.964844 494.433594 516.019531 493.949219 517.097656 493.515625 C 518.175781 493.085938 519.273438 492.707031 520.390625 492.382812 C 521.507812 492.058594 522.636719 491.789062 523.777344 491.574219 C 524.921875 491.363281 526.070312 491.207031 527.230469 491.105469 C 528.386719 491.003906 529.546875 490.960938 530.710938 490.972656 C 531.871094 490.988281 533.03125 491.058594 534.1875 491.1875 C 535.339844 491.3125 536.488281 491.496094 537.625 491.738281 C 538.761719 491.976562 539.882812 492.273438 540.992188 492.621094 C 542.101562 492.972656 543.1875 493.375 544.257812 493.832031 C 545.324219 494.289062 546.371094 494.800781 547.386719 495.359375 C 548.40625 495.917969 549.394531 496.527344 550.355469 497.183594 C 551.3125 497.839844 552.238281 498.542969 553.125 499.292969 C 554.015625 500.039062 554.867188 500.828125 555.679688 501.660156 L 707.949219 657.597656 C 709.164062 658.835938 710.277344 660.160156 711.296875 661.566406 C 712.316406 662.972656 713.226562 664.445312 714.03125 665.984375 C 714.832031 667.523438 715.519531 669.113281 716.085938 670.753906 C 716.65625 672.394531 717.101562 674.066406 717.425781 675.773438 C 717.75 677.480469 717.949219 679.199219 718.019531 680.933594 C 718.089844 682.667969 718.035156 684.398438 717.851562 686.125 C 717.667969 687.851562 717.359375 689.554688 716.925781 691.238281 C 716.496094 692.917969 715.941406 694.558594 715.265625 696.160156 C 714.59375 697.757812 713.804688 699.300781 712.90625 700.785156 C 712.003906 702.269531 711 703.679688 709.894531 705.015625 C 708.789062 706.355469 707.589844 707.605469 706.296875 708.765625 C 705.007812 709.925781 703.636719 710.988281 702.191406 711.945312 C 700.746094 712.90625 699.238281 713.757812 697.664062 714.496094 C 696.09375 715.234375 694.476562 715.855469 692.816406 716.355469 C 691.152344 716.855469 689.464844 717.234375 687.746094 717.488281 C 686.03125 717.742188 684.300781 717.867188 682.566406 717.867188 Z M 682.566406 717.867188 " fill-opacity="1" fill-rule="nonzero"/></g><path fill="#ffffff" d="M 271.601562 433.0625 C 242.65625 433.0625 204.394531 424.769531 163.445312 393.265625 C 127.492188 365.621094 110.917969 323.089844 115.5 270.296875 C 116.601562 258.160156 118.613281 246.179688 121.535156 234.347656 C 124.457031 222.515625 128.253906 210.976562 132.929688 199.722656 C 133.230469 199.0625 133.59375 198.4375 134.015625 197.847656 C 134.4375 197.257812 134.914062 196.714844 135.445312 196.21875 C 135.972656 195.722656 136.546875 195.28125 137.160156 194.898438 C 137.777344 194.515625 138.425781 194.195312 139.101562 193.9375 C 139.78125 193.683594 140.476562 193.492188 141.195312 193.375 C 141.910156 193.253906 142.628906 193.207031 143.355469 193.226562 C 144.078125 193.25 144.796875 193.339844 145.503906 193.503906 C 146.210938 193.664062 146.894531 193.894531 147.558594 194.191406 C 148.21875 194.488281 148.847656 194.84375 149.4375 195.265625 C 150.03125 195.683594 150.574219 196.15625 151.074219 196.683594 C 151.574219 197.210938 152.015625 197.78125 152.402344 198.394531 C 152.789062 199.007812 153.113281 199.652344 153.375 200.328125 C 153.632812 201.007812 153.828125 201.703125 153.949219 202.417969 C 154.074219 203.132812 154.128906 203.851562 154.109375 204.578125 C 154.09375 205.300781 154.003906 206.019531 153.847656 206.726562 C 153.6875 207.433594 153.460938 208.121094 153.171875 208.785156 C 144.761719 229.324219 139.550781 250.648438 137.542969 272.753906 C 133.757812 317.988281 147.019531 352.582031 176.957031 375.644531 C 250.875 432.53125 314.074219 403.144531 314.710938 402.832031 C 315.367188 402.496094 316.050781 402.230469 316.761719 402.035156 C 317.472656 401.835938 318.195312 401.710938 318.933594 401.660156 C 319.667969 401.605469 320.402344 401.625 321.132812 401.71875 C 321.867188 401.8125 322.582031 401.976562 323.28125 402.210938 C 323.980469 402.449219 324.648438 402.753906 325.285156 403.121094 C 325.925781 403.492188 326.519531 403.921875 327.074219 404.410156 C 327.625 404.898438 328.125 405.4375 328.570312 406.023438 C 329.015625 406.613281 329.398438 407.238281 329.71875 407.902344 C 330.039062 408.570312 330.292969 409.257812 330.472656 409.972656 C 330.65625 410.6875 330.765625 411.414062 330.804688 412.152344 C 330.84375 412.886719 330.804688 413.621094 330.699219 414.351562 C 330.589844 415.082031 330.410156 415.792969 330.160156 416.488281 C 329.90625 417.179688 329.589844 417.84375 329.207031 418.472656 C 328.824219 419.105469 328.382812 419.691406 327.882812 420.234375 C 327.382812 420.777344 326.832031 421.261719 326.238281 421.695312 C 325.640625 422.128906 325.003906 422.5 324.332031 422.804688 C 322.75 423.617188 302.484375 433.0625 271.601562 433.0625 Z M 271.601562 433.0625 " fill-opacity="1" fill-rule="nonzero"/></svg>