<svg xmlns="http://www.w3.org/2000/svg" xmlns:xlink="http://www.w3.org/1999/xlink" width="1024" zoomAndPan="magnify" viewBox="0 0 768 767.999994" height="1024" preserveAspectRatio="xMidYMid meet" version="1.0"><defs><clipPath id="967f505b29"><path d="M 11.203125 11.203125 L 756.703125 11.203125 L 756.703125 756.703125 L 11.203125 756.703125 Z M 11.203125 11.203125 " clip-rule="nonzero"/></clipPath></defs><g clip-path="url(#967f505b29)"><path fill="#ffffff" d="M 729.628906 442.300781 C 744.257812 442.300781 756.226562 430.332031 756.226562 415.707031 L 756.226562 351.394531 C 756.226562 336.769531 744.257812 324.800781 729.628906 324.800781 L 702.015625 324.800781 C 687.386719 324.800781 671.90625 313.355469 667.597656 299.375 L 644.035156 242.164062 C 637.121094 229.273438 639.921875 210.265625 650.257812 199.929688 L 669.808594 180.382812 C 680.144531 170.035156 680.152344 153.113281 669.808594 142.765625 L 624.335938 97.296875 C 613.988281 86.949219 597.066406 86.949219 586.71875 97.296875 L 567.171875 116.84375 C 556.824219 127.191406 537.808594 129.980469 524.929688 123.058594 L 467.71875 99.503906 C 453.738281 95.203125 442.300781 79.714844 442.300781 65.085938 L 442.300781 37.472656 C 442.300781 22.84375 430.335938 10.875 415.707031 10.875 L 351.394531 10.875 C 336.769531 10.875 324.800781 22.84375 324.800781 37.472656 L 324.800781 65.085938 C 324.800781 79.714844 313.355469 95.203125 299.382812 99.503906 L 242.175781 123.058594 C 229.285156 129.980469 210.277344 127.179688 199.941406 116.835938 L 180.390625 97.285156 C 170.046875 86.941406 153.121094 86.941406 142.773438 97.285156 L 97.304688 142.757812 C 86.957031 153.101562 86.957031 170.027344 97.304688 180.375 L 116.863281 199.921875 C 127.207031 210.265625 130 229.273438 123.085938 242.164062 L 99.519531 299.375 C 95.222656 313.355469 79.734375 324.789062 65.105469 324.789062 L 37.5 324.789062 C 22.871094 324.789062 10.902344 336.757812 10.902344 351.386719 L 10.902344 415.707031 C 10.902344 430.332031 22.871094 442.300781 37.5 442.300781 L 65.105469 442.300781 C 79.734375 442.300781 95.222656 453.738281 99.519531 467.71875 L 123.09375 524.9375 C 130.019531 537.816406 127.214844 556.835938 116.871094 567.171875 L 97.3125 586.730469 C 86.96875 597.066406 86.96875 613.988281 97.3125 624.335938 L 142.773438 669.804688 C 153.121094 680.152344 170.046875 680.144531 180.390625 669.804688 L 199.949219 650.25 C 210.292969 639.914062 229.300781 637.109375 242.183594 644.035156 L 299.390625 667.597656 C 313.371094 671.898438 324.808594 687.378906 324.808594 702.015625 L 324.808594 729.628906 C 324.808594 744.257812 336.777344 756.226562 351.40625 756.226562 L 415.714844 756.226562 C 430.34375 756.226562 442.3125 744.257812 442.3125 729.628906 L 442.3125 702.003906 C 442.3125 687.378906 453.746094 671.898438 467.726562 667.589844 L 524.9375 644.035156 C 537.820312 637.109375 556.835938 639.902344 567.171875 650.25 L 586.738281 669.808594 C 597.074219 680.152344 614.007812 680.144531 624.34375 669.808594 L 669.816406 624.335938 C 680.152344 614 680.160156 597.066406 669.816406 586.71875 L 650.265625 567.171875 C 639.921875 556.824219 637.128906 537.808594 644.042969 524.929688 L 667.597656 467.71875 C 671.898438 453.738281 687.386719 442.300781 702.023438 442.300781 Z M 383.550781 536.871094 C 298.878906 536.871094 230.234375 468.226562 230.234375 383.550781 C 230.234375 298.867188 298.878906 230.222656 383.550781 230.222656 C 468.226562 230.222656 536.878906 298.867188 536.878906 383.550781 C 536.878906 468.226562 468.226562 536.871094 383.550781 536.871094 Z M 383.550781 536.871094 " fill-opacity="1" fill-rule="nonzero"/></g></svg>